<svg version="1" xmlns="http://www.w3.org/2000/svg" width="518.667" height="518.667" viewBox="0 0 389.000000 389.000000"><path d="M1.8 97.1c-.7.5-1 31.5-1 95 0 51.9.1 95.8.1 97.6l.1 3.2 193.8-.2 193.7-.2v-97.3c0-53.6-.2-97.7-.5-98-.6-.9-384.9-.9-386.2-.1zm142.8 13.6c-.3.3-.1 1.3.4 2.3.5.9 1.1 2.8 1.3 4.1.3 1.3 1.2 4.8 2 7.7.9 2.8 1.3 5.2.9 5.2s-.1.4.7.9c.7.5 1.4 2.5 1.5 4.4 0 1.9.4 3.3.9 3 .6-.4.9.8 1.1 5.4.1 1 .4 2 .7 2.3.6.4 2.9 8.3 4.5 15 .9 4 1.1 4.4 1.7 6 .6 1.5 5.9 20.2 9.7 34.4 1.1 3.8 1.7 7.3 1.4 7.7-.2.4-.1.9.4 1.1 1.3.5 8.4 26.7 7.6 28.1-.4.6-.3.8.2.4.7-.7 5.5 14.4 7.1 22.3.2 1.4.7 3.2 1 4 3 7.6 4.3 18 1.8 14-.4-.6-1.3-.7-2.3-.2-2 1-148.8.9-149.8-.1-.4-.3-1.4-.3-2.3.1-2 .9-5.2.8-6.9-.1-.7-.5-1.2-.3-1.3.5 0 .7-.4.4-.9-.7-.6-1.4-.9-1.5-.9-.5-.1 1.2-1.1 1.5-4.8 1.3-2.5-.2-4.8-.5-5.1-.8-.9-.9-.8-7 .1-8.3.6-.7.6-1.2 0-1.2-.5 0-.9-1-.8-2.3.2-1.2.7-2.1 1.2-2 .5.1 1-.4 1-1.2 0-.7-.6-1.1-1.2-.9-1.3.5-1.4-2.4-.1-4.4.4-.6.4-1.2-.1-1.2-.4 0-.7-3.5-.6-7.7.2-9.9.1-9.5 1.1-8.9.5.3.9-.1.9-.8 0-.8-.6-1.2-1.2-1-1.7.7-1.2-3.6.6-4.7 1.2-.7 1.1-.9-.2-.9-1.9 0-1.9-3.1 0-5.4 1.2-1.4 1.2-1.6-.1-1.1-1.6.6-1.8-2-.4-4.3.4-.6.3-1.2-.2-1.2s-.8-1-.7-2.3c.1-1.3.8-2.2 1.8-2.2.8 0 1.9-.4 2.4-.8.4-.5.4-.8-.2-.7-3.8.8-5.2-1.4-3.1-4.8.4-.6.4-1.2-.1-1.2-.9 0-.9-15.3.1-16.8.3-.6 0-1.3-.6-1.5-1-.4-.9-.8.2-1.6 1.2-.8 1.2-1.1.1-1.1-1.1 0-1.1-.3-.1-1.5.7-.8.8-1.5.3-1.5-1.5 0-.8-4 .8-5.1 1.2-.7 1.1-.9-.2-.9-1.6 0-1.9-2.6-.5-4.8.4-.6.3-1.2-.2-1.2-1.3 0-.8-3.6.7-5.4 1.2-1.4 1.2-1.6-.1-1.1-1.6.6-1.8-2-.4-4.3.4-.6.4-1.2-.1-1.2-.4 0-.8-4.5-.8-10 0-8.2.3-10 1.5-10.1 1.1-.1 1-.3-.3-.6-.9-.2-1.5-.9-1.1-1.4.3-.5.9-.7 1.3-.5.4.3.8-.1.8-.8 0-.9-.7-1.2-1.6-.8-1.4.5-1.4.4-.1-1.3.9-1.1 1-1.6.3-1.1-.7.4-1.3.3-1.3-.3 0-.5.5-1.3 1.1-1.7.8-.4.7-.9-.2-1.5-2-1.2-.5-2.1 4-2.3 2.3-.1 4.7-.8 5.3-1.5 1.1-1.1 1-1.2-.2-.5-.8.4-3.4.9-5.8 1-3.7.2-4.2 0-3.1-1.2.8-1 .8-1.4 0-1.4-.6 0-1.1-.5-1.1-1 0-.6.6-1 1.4-1 .8 0 1.7-.4 2-.9.4-.5-.4-.7-1.6-.3-2.1.5-2.2.4-.9-1.1 1-1.3 1-1.7.1-1.7s-.9-.4.1-1.7c1-1.1 1-1.4.2-.9-.7.4-1.3.3-1.3-.1 0-.5.6-1.5 1.3-2.2.7-.9.8-1.2 0-.7-.7.4-.9-.1-.6-1.4.5-2 1.4-2 65.5-1.9 35.7 0 64.7.3 64.4.6zm69.7 31c-.5 1.4-.3 1.5.7.6.7-.6 1.9-.9 2.8-.6 1.1.5 1.3.3.7-.7-.6-.9-.4-1.1.4-.5 1.5.9 8.1 1.3 8.1.4 0-.6 2.5-.4 7.5.6 1.4.3 2.1 1.3 2.1 3.2.1 1.5.5 4.4.8 6.3 1.8 10.1 1.8 11.3.5 10.6-.8-.4-.7-.2.2.6.9.7 1.6 2.7 1.5 4.5-.1 1.7.2 2.9.7 2.6.6-.4 1 2.9 1.1 11.9.1 2 .4 3.4.8 3.2.5-.3.8.7.9 2.3 0 1.5.2 3.7.4 4.8 1.9 13.5 2.8 20.9 2.9 25.1.1 4.3.4 5 1.8 4.6 1-.2 1.5-.8 1.2-1.3-.3-.5-.2-2.9.2-5.4.6-4 .8-4.4 2.3-3.3 1.3 1 1.4 1 .4-.2-1.8-2-1.7-5.4.2-4.7.8.4 1.7.2 2-.4.4-.5.3-.9-.2-.8-2.9.5-2.9-.5-.6-10.9 1.3-5.9 2.6-11.7 2.8-12.9.1-1.1.7-3.2 1.1-4.5.4-1.2.7-3.1.5-4.1-.2-1.8 1.4-2.3 2.4-.7.3.5 1.1 1 1.8 1 .6 0 .1-.7-1.1-1.6-1.7-1.2-2-1.9-1.2-3.3.5-1 .7-2.1.4-2.4-.3-.3 0-2.5.7-4.8.7-2.4 1.2-4.7 1.1-5.2-.4-1.6 2.8-.5 4.2 1.5.9 1.2 1.6 1.8 1.6 1.2 0-.6 1.4-2.7 3-4.5 1.7-1.9 3.8-4.6 4.6-6.2 1.6-3 1.8-3.1 4.4-1.7 1.3.7 1.9.6 2.4-.6.8-2-.1-3.4-2-3.4-.8 0-1.4-.4-1.4-1s.9-.6 2.4 0c1.3.5 2.6.6 2.9.4.3-.3.8.4 1.2 1.6.4 1.2.4 2.4.1 2.7-.3.4 0 1.3.7 2.1.9 1.3.9 1.4 0 .8-1.8-1-1.6.2.3 2.1.8.9 1.3 2.4 1.1 3.4-.3 1.1-.1 1.9.4 1.9s.9.7.9 1.6c0 1.4-.3 1.5-1.7.3-1.1-.8-.9-.4.4 1.1 1.2 1.4 2.4 4.1 2.8 6 1 5.9 1.2 6.4 1.8 8 1.6 4.4 2.4 10 1.3 9.3-.6-.4-.6 0 .2.9 1.5 1.9 5.4 19.8 5.6 26 .1 1.6.4 2.8.8 2.8.5 0 .7.3.7.7-.7 4.6 2 10.9 3.6 8.3.5-.8.4-1.1-.3-.6-.7.4-1-.1-.9-1.4.1-1.1.5-2 1-2 .4 0 .5-.4.2-1-1.1-1.7.6-13 1.9-12.3.6.4.6.1-.1-.9-.7-.8-1-1.8-.7-2.1.4-.3.8-3 1-5.8.3-2.9 1-5.7 1.7-6.1.9-.6.9-.8-.1-.8-.7 0-1-.5-.7-1 .4-.6 1.2-.7 1.8-.4.8.5.8.3 0-.7-1.5-1.5-1.7-4.9-.5-4.9.5 0 .6-1.5.4-3.2-.5-3.1-.4-3.2 1.3-1.8 1.7 1.4 1.7 1.3.8-.5-1.9-3.6.1-17.1 2.8-18.5 2.4-1.3 2.7.5.3 1.8-2.1 1.2-1 3.2 1.7 3.2 1 0 1.8.5 1.6 1.1-.1.6.5 1.4 1.3 1.6 1.2.4 1.2.3.2-.5-.8-.5-1.2-1.3-1-1.8.1-.5-.7-1-2-1.2l-2.2-.3 2-2.6c1.5-1.9 1.7-3 1-4.3-.6-1.2-.6-2.1-.1-2.5.5-.3 1.2.4 1.6 1.5.6 2 2.5 1.9 2.5-.1 0-.6-.5-.7-1.2-.3-.8.5-.9.2-.5-1 .4-.9.3-1.5-.2-1.2-2.1 1.4-1.8-2.4.4-3.8s2.3-1.4 3.5 1.4l1.2 2.9 1.7-2.1c1-1.2 2.3-1.8 2.9-1.4 1.8 1.1 1.4 2.6-.5 2-1.5-.5-1.5-.4-.3.4 1.6 1.2 3 .7 3-1.3 0-1.4-2.7-2.8-4-2-.5.3-.8-.4-.7-1.5.2-2.4.1-2.4 3.2-.4 1.4.9 2.5 2.4 2.6 3.3 0 1.1.2 1.2.6.3.3-.7-.1-2-.9-2.9-1.1-1.5-1.1-1.6.5-1 1.1.4 1.6.3 1.2-.4-.4-.5-1.5-.7-2.6-.4-1.5.5-1.8.3-1.3-1.2.4-1.3.3-1.5-.4-.4-.6.8-1.2.9-1.6.3-.9-1.5 2-2.2 3.3-.9.9.9 1.4.9 2-.2.7-1.1 1-1.1 1.7 0 1.2 2 1.4 3.9.3 3.9-.5 0-.7 1.1-.5 2.5.3 1.4.2 2.5-.2 2.5s-.7 1.2-.8 2.7c-.1 2.8-.9 8.8-1.9 13.3-.3 1.4-.7 3.8-1 5.5-.2 1.6-.6 4-.9 5.2-.9 4.4-2 11.8-1.8 12.7.2.5-.5.6-1.4.2-1.4-.5-1.5-.4-.4.9.8.9 1 2.5.5 4.2-.4 1.6-.9 4.1-1.1 5.8-.3 1.6-.9 5.2-1.5 8-.5 2.7-1.1 6.1-1.4 7.5-.3 1.4-.8 4.5-1.1 7-.3 2.5-.8 5.4-1 6.5-.5 2.5-1.8 8.8-2 9.7-.1.5-.2 1.5-.3 2.3-.1 1.2-1.6 1.5-7.3 1.4-4-.1-7.9-.6-8.7-1.3-1.2-.8-1.3-.8-.7.2.6 1-.7 1.2-5.7 1-6.1-.2-6.6-.4-7.1-2.8-.3-1.6.1-3 1.2-3.8 1.6-1.2 1.5-1.3-.3-1-1.6.2-2-.2-1.8-2.5.1-1.5-.1-2.5-.6-2.3-.4.3-.8-.3-.8-1.2-.2-1.9-1-5.8-4.3-20.2-2.9-12.8-3.3-15.1-3.4-17.8-.1-1.2-.4-2.2-.7-2.2-.3 0-.6-.6-.6-1.3 0-1.1-.6-5.1-1.9-12.1-.2-1.5.1-3.6.8-4.5 1.2-1.4 1.1-1.4-.4-.2-1 .7-2 2.9-2.4 5-.4 2-1.2 3.9-1.8 4.3-.8.5-.7.8.2.8.8 0 1 .5.5 1.2-.4.7-.8 2.4-.9 3.8-.2 2.3-1 7.5-1.7 10.6-.2.7-.9 2-1.7 3-1.3 1.5-1.3 1.6-.1.9 1.1-.6 1.3-.4.7 1.1-.5 1-1 3.7-1.3 5.9-.3 2.2-1.1 6.5-1.9 9.6-.8 3.1-1.4 6.7-1.4 7.9 0 1.3-.4 1.9-1.2 1.4-.7-.5-.8-.3-.4.5 1 1.6-1.3 14.1-2.6 14.1-.5 0-.6.5-.3 1 .4.7-3.8 1-12.9.9-10.7-.1-13.9-.5-14.8-1.7-1.1-1.3-.9-1.4 1.2-.8 2.5.6 2.5.6.3-.5-1.3-.7-2.3-1.7-2.4-2.3-.1-1.8-.6-4.9-1.2-7.9-.3-1.6-.2-2.5.4-2.2.5.4.9.1.9-.4 0-.6-.4-1.1-.9-1.1s-1.2-.7-1.5-1.6c-.4-1-.2-1.3.7-.8.8.5.7.2-.2-.9-1.1-1.4-1.1-1.7 0-1.7.8 0 .5-.6-.7-1.5-1.8-1.5-1.8-1.5 0-1.3 1 .2 2.1-.4 2.3-1.2.4-1.2.3-1.2-.5-.2-.7 1.1-1.2 1-2.6-.3-2-2.1-2.1-3.2-.1-1.5 1.3 1.1 1.4 1 .9-.4-.3-.9-1-1.6-1.5-1.6-1.3 0-1.1-3.4.4-4.9 1-1 .8-1.1-.8-.5-1.8.7-1.8.6-.6-.9.7-.9 1.7-1.4 2.2-1.1.5.3.6-.2.2-1.1-.4-1.2-.8-1.3-1.3-.5-1.3 2.1-2.8.2-2.4-3 .2-1.6-.1-3-.6-3-.6 0-.9-.3-.8-.8.1-.4-.2-2.7-.6-5.2-.5-2.5-1-5.2-1.1-6 0-.8-.5-3-.9-4.8-.5-2.2-.4-3.8.5-4.8 1-1.2 1-1.5-.2-1.2-.8.2-1.4-.5-1.5-1.7 0-1.1-.4-3.1-.8-4.4-1-2.9.7-4.9 2.7-3.2 1.1.9 1.7.7 2.8-.6 1.3-1.6 1.2-1.7-.3-.4-1.6 1.2-1.9 1-2.7-1-.7-1.8-.5-2.7.7-3.7.9-.6 1.2-1.2.6-1.2-1.2.1-4.4 2.5-4.4 3.4 0 .4.5.4 1.1 0 .7-.4 1-.1.7.6-.6 1.8-2.4 2.4-2.6.8-.4-5-.9-7.5-1.6-8.7-.6-.9-.5-1.2.5-.9.8.3 1.3 1.2 1.3 2-.1.9.7 1.5 1.7 1.4 1.1-.1 1.9-.5 1.8-1 0-.5.5-1.3 1.3-1.8 1-.8 1-.9-.2-.5-.8.2-1.4 1-1.2 1.6.1.6-.2 1.1-.8 1.1-1.4 0-1.2-2.7.2-3.6 1.7-1.1 5.9-1.4 5.4-.5-.3.4.7 1.7 2.2 2.8 2.5 1.9 2.8 1.9 2.8.3 0-1.1-.6-1.6-1.5-1.2-.9.3-1.2.1-.7-.6.5-.8.2-1-.9-.6-1 .4-1.5.2-1.3-.7.2-.9-.5-1.3-2.2-1.2-2.4.3-2.4.2-.6-1.2 1.7-1.3 1.8-1.5.3-1.5-.9 0-1.7-.4-1.7-.9 0-1.5 3.2-.6 4.5 1.3 1.2 1.6 1.4 1.6 2-.4.4-1.3 1.2-1.9 2-1.6 1 .3 1.2 0 .8-1.1-.4-.9-.2-1.4.3-1 .6.3 1.6.2 2.3-.3 2.6-1.5.1-2.8-5.3-2.7-4.5.1-5.1.3-4 1.5 1.8 1.8 1.8 2.9-.1 2.9-1 0-1.4-.6-1-1.6.3-.8.3-1.2-.1-.8-.4.4-1.3-.1-2.1-1.1-1.2-1.6-1.4-1.6-2.8.2s-2 1.5-1.6-.7c.1-.5-.2-.6-.7-.3-1.1.6-1 4.6.1 6.3.4.7 1.4 1 2.2.7.8-.4 1.3-1 1-1.4-.3-.4.1-1.3.8-1.9 1.1-.8 1.4-.5 1.4 1.9 0 1.6-.4 2.7-.9 2.4-.5-.3-1.4-.1-2.1.5-1.9 1.5-3.5 0-4.2-3.8-.3-1.9-.8-3.8-1.1-4.3-.3-.4-.2-1.3.1-1.8 1-1.6 1.5-1.2.8.7zm57.3-.3c1.9.1 3.5-.3 3.7-.8.2-.5 1-.1 1.9.8.9.9 2.4 1.6 3.2 1.6.9 0 1.6.4 1.6 1 0 1.3-2.7 1.3-3.5-.1-.4-.6-1.8.5-3.3 2.8-1.4 2.1-2.8 4-3.2 4.3-.3.3-1.5 1.7-2.6 3.1-1.9 2.6-2.1 2.6-4.2.9-1.5-1.2-2-2.5-1.6-4.1.3-1.3.7-3.5 1-4.9.3-1.3.9-2.9 1.5-3.6.5-.6.5-1.5.1-1.9-.4-.5-.1-.5.6-.1.8.5 2.9.9 4.8 1zm53.4.1c.6-.4.7 4.1.1 7.5-.1.3-.5-.2-1.1-1-.5-.9-.5-1.9.2-2.7.8-1 .7-1.2-.6-.7-.9.3-1.6.1-1.6-.5s.4-1.1 1-1.1c.5 0 .8-.6.6-1.3-.1-.6-.1-.9.1-.4.3.4.8.5 1.3.2zm-3 .3c0 .5-.6 1.7-1.4 2.7-1.3 1.8-1.4 1.8-2.5-.3-1.2-2.2-3.1-2.2-3.1.1 0 .8.3.8.9-.1.6-1.1 1-1 1.5.4.4.9.2 2.2-.3 2.7s-.7 1.5-.5 2.2c.3.7.1 1.6-.5 2-.8.4-.8 1.3 0 2.8.7 1.2.8 1.9.4 1.5-.4-.4-1.6-.3-2.6.3-1.3.6-1.9.6-1.9-.1 0-.5.8-1 1.8-1.1 1.4 0 1.4-.2-.3-.9-1.1-.5-1.5-.9-.9-.9.7-.1 1.2-1.1 1.1-2.4 0-1.2.4-3.1.8-4.1.6-1.5.5-1.7-.5-1.1-.7.5-1.1.4-.8-.1.3-.5.7-1.6 1.1-2.5.5-1.6 7.7-2.6 7.7-1.1zm-101 1.8c0 .7-4 5.8-4.1 5.3-.6-3.1-.6-3.8-.1-3.8 2 .3 3.2-.2 2.7-1.1-.3-.6-.1-1 .4-1 .6 0 1.1.3 1.1.6zm12.4.5c-.3.5-.9.7-1.4.4-.5-.3-1.8.7-2.9 2.1-2.2 2.8-2.3 2.7-2.3-.6 0-1.1 0-2.2.1-2.4.1-.2 1.7-.4 3.6-.4 1.9 0 3.2.4 2.9.9zm-13.6 8.5c-1.3 1.3-2 1.4-3.4.4-1.6-1-1.6-1.1-.2-.6 1 .3 2 .1 2.3-.4.4-.6 1.1-1 1.8-1s.5.7-.5 1.6z"/><path d="M23.9 111.2c-.5 1.2-.4 7.8.1 7.8.4 0 .7-1.8.6-4-.1-3.5-.3-4.7-.7-3.8zM35.9 112.7c-1.2 1.6-1.2 1.7.2.6.9-.7 2-.9 2.4-.5.5.4.5.1.1-.6-.9-1.6-1.1-1.5-2.7.5zM80.6 111.8c-.3.5.1.9.9.9s1.2-.4.9-.9c-.3-.4-.7-.8-.9-.8-.2 0-.6.4-.9.8zM84 111.4c0 .2.8 1 1.8 1.7 1.5 1.3 1.6 1.2.3-.4s-2.1-2.1-2.1-1.3zM109.6 111.8c-.3.5.1.9.9.9s1.2-.4.9-.9c-.3-.4-.7-.8-.9-.8-.2 0-.6.4-.9.8zM121.6 112.7c-.6 1.4-.5 1.5.5.6.7-.7 1-1.5.7-1.8-.3-.3-.9.2-1.2 1.2zM19 113.4c0 .2.7.7 1.6 1 .8.3 1.2.2.9-.4-.6-1-2.5-1.4-2.5-.6zM27.1 114.7c.7 1.2 1.5 2 1.8 1.7.3-.2-.3-1.2-1.3-2.2-1.7-1.6-1.8-1.6-.5.5zM139.4 115.4c.1.8.5 1.8.8 2.2.4.3.5-.1.4-1-.1-.8-.5-1.8-.8-2.2-.4-.3-.5.1-.4 1zM67.9 116.7c-1.3 1.6-1.2 1.7.4.4.9-.7 1.7-1.5 1.7-1.7 0-.8-.8-.3-2.1 1.3zM99.9 116.7c-1.3 1.6-1.2 1.7.4.4.9-.7 1.7-1.5 1.7-1.7 0-.8-.8-.3-2.1 1.3zM106 115.4c0 .2.8 1 1.8 1.7 1.5 1.3 1.6 1.2.3-.4s-2.1-2.1-2.1-1.3zM19 116.4c0 .2.8 1 1.8 1.7 1.5 1.3 1.6 1.2.3-.4s-2.1-2.1-2.1-1.3zM31 118.5c.5.7.6 1.6.2 2.1-.4.5-.3.6.2.2.5-.4 1.6-.2 2.5.4 1.2 1 1.2.7-.2-.8-.9-1.1-1.5-2.3-1.2-2.6.3-.2-.2-.5-1-.5-1 0-1.2.4-.5 1.2zM43 118.2c0 .4.4.8.9.8.6 0 1.2-.4 1.5-.8.3-.5-.1-.9-.9-.9s-1.5.4-1.5.9zM114.7 118.1c.7.7 1.5 1 1.8.7.3-.3-.2-.9-1.2-1.2-1.4-.6-1.5-.5-.6.5zM87.5 118.9c-.3.5-.2 1.2.3 1.5.5.3.9-.1.9-.9 0-1.7-.3-1.9-1.2-.6zM119.3 119.5c0 .8.4 1.2.9.9.5-.3.6-1 .3-1.5-.9-1.3-1.2-1.1-1.2.6zM39 119.4c0 .2.7.7 1.6 1 .8.3 1.2.2.9-.4-.6-1-2.5-1.4-2.5-.6zM103.5 120c.3.5.8 1 1.1 1 .2 0 .4-.5.4-1 0-.6-.5-1-1.1-1-.5 0-.7.4-.4 1zM138.6 119.8c-.2.4.4.8 1.4.8 1 0 1.6-.4 1.4-.8-.3-.4-.9-.8-1.4-.8-.5 0-1.1.4-1.4.8zM53.6 122.2c.3.5 1 .6 1.5.3 1.3-.9 1.1-1.2-.6-1.2-.8 0-1.2.4-.9.9zM61.5 122c.3.5.8 1 1.1 1 .2 0 .4-.5.4-1 0-.6-.5-1-1.1-1-.5 0-.7.4-.4 1zM64.6 121.8c-.3.5.1.9.9.9s1.2-.4.9-.9c-.3-.4-.7-.8-.9-.8-.2 0-.6.4-.9.8zM79.4 121.8c.4.3 1.4.7 2.2.8.9.1 1.3 0 1-.4-.4-.3-1.4-.7-2.2-.8-.9-.1-1.3 0-1 .4zM93.5 121.9c.3.3 1.7.6 3.1.7 1.3 0 2.2-.2 1.9-.5-.3-.3-1.7-.6-3.1-.7-1.3 0-2.2.2-1.9.5zM109.5 122c.3.5.8 1 1.1 1 .2 0 .4-.5.4-1 0-.6-.5-1-1.1-1-.5 0-.7.4-.4 1zM112.6 122.2c.3.5 1 .6 1.5.3 1.3-.9 1.1-1.2-.6-1.2-.8 0-1.2.4-.9.9zM125 121.4c0 .2.7.7 1.6 1 .8.3 1.2.2.9-.4-.6-1-2.5-1.4-2.5-.6zM131 121.4c0 .2.7.7 1.6 1 .8.3 1.2.2.9-.4-.6-1-2.5-1.4-2.5-.6zM24.9 123.7c-1.3 1.6-1.2 1.7.4.4.9-.7 1.7-1.5 1.7-1.7 0-.8-.8-.3-2.1 1.3zM29.6 123.3c.3 1 .9 1.5 1.2 1.2.3-.3 0-1.1-.7-1.8-1-.9-1.1-.8-.5.6zM17.9 124.7c-1.3 1.7-1.3 1.7.6.3 1.1-.8 2.2-1.6 2.4-1.7.2-.2 0-.3-.6-.3s-1.7.8-2.4 1.7zM26.9 125.7c-1.3 1.6-1.2 1.7.4.4.9-.7 1.7-1.5 1.7-1.7 0-.8-.8-.3-2.1 1.3zM143 125.5c0 .7 3 1.3 3.4.7.3-.4-.4-.9-1.5-.9-1-.1-1.9 0-1.9.2zM27.6 128.7c-.6 1.4-.5 1.5.5.6.7-.7 1-1.5.7-1.8-.3-.3-.9.2-1.2 1.2zM17.4 131.1c-.3.6-.2 1.5.3 2s.9.1.9-1.1c0-2.3-.2-2.4-1.2-.9zM94.7 139.6c-.4.4-9.3.7-19.9.7H55.5l-.1 51.3c0 51.1 0 51.4 2.1 51.5 1.1.1 2.4.1 2.9 0 .4-.1 1.5.4 2.4 1.1 1.2 1 1.4 1 .8 0-.4-.6-.2-1.2.3-1.2.6 0 1.1.6 1.1 1.2 0 .8.3.9.8.3.9-1.3 8.2-1.4 8.2 0 0 .5.5.3 1.1-.5.8-1.1 1.2-1.2 1.6-.3.2.7.9 1.3 1.4 1.3.6 0 .8-.4.5-.8-.3-.5.9-.8 2.7-.8 2 .1 3.5.7 3.9 1.8.5 1.2 1.3 1.5 2.4 1.1 1.3-.5 1.5-.3.9.8s-.5 1.1.5.2c.7-.6 1.8-.9 2.5-.6.7.2 1.6-.4 1.9-1.5.7-2.2 3.3-2.5 4.1-.4.4 1 0 1.2-1 .8-.9-.3-1.3-.2-1 .4.3.6.1 1-.6 1s-1 .3-.7.6c1.3 1.2 4.7-1.6 4.2-3.4-.5-1.4-.3-1.4 1 .2 1.2 1.5 1.6 1.6 1.6.5 0-1.2 1.4-1.5 6.5-1.5 3.6.1 6.5.5 6.5 1s.7.3 1.5-.4c1-.9 1.5-.9 1.5-.1 0 .6.5 1.1 1.1 1.1.5 0 .7-.5.4-1-.9-1.5 1.8-.8 3 .8 1.1 1.4 1.2-5.9 0-7.7-.3-.6-.3-1.1.2-1.1.4 0 .6-2.9.5-6.5l-.4-6.5-4.3.4c-2.7.2-4.6-.1-4.9-.8-.2-.6-.5-.7-.5-.1-.1 1.1-14.2 1.2-16 .1-.6-.4-1.1-.3-1.1.2 0 1-6.2.8-7.9-.2-.5-.3-1.1-.3-1.4.1-.2.5-.2.3-.1-.4.2-.7-.2-1.5-.8-1.9-.7-.4-.8-.3-.4.4s.2 1.2-.4 1.2c-.6 0-.8.5-.4 1.1.5.8.1.8-1.3 0-1.1-.6-2.2-.8-2.5-.6-.3.3-.5-2-.5-5s.4-5.5.9-5.5c.4 0 .8-.5.8-1.1 0-.5-.4-.7-1-.4-.5.3-1 .1-1-.4 0-.6.6-1.1 1.3-1.1.8 0 .9-.2.1-.8-1.3-.8-1.6-6.2-.3-6.2 1.5 0 2.1 2.1 1 3.4-.9 1-.8 1.5.2 1.9 1.4.5 1.6 3.4.5 5.3-.4.5.3 1.6 1.5 2.4 1.9 1.1 2 1.1 1.1-.1-.6-.8-1.1-2.4-1.2-3.7-.1-1.9.2-2.1 1.4-1.2 1.4 1.2 2 .3 1.5-2.4-.1-.5.4-.6 1.2-.3.9.3 1.3-.5 1.4-2.8.1-3.3 0-3.3-3.6-3-2.1.2-4.3 0-4.9-.4-.6-.4 6.2-.7 15.2-.7 14.6-.1 16.4.1 15.8 1.5-.3.9.4.5 1.5-.9 1.1-1.3 1.8-3 1.6-3.7-.4-.9 0-1.1 1.1-.7.9.3 1.6.1 1.6-.5s-.6-1-1.2-.9c-1 .2-1.3-1.7-1.3-7 0-3.9-.3-7.3-.7-7.3-.5-.1-1.2-.2-1.7-.3-.5 0-1.3-.4-1.7-.8-.4-.4-1.3-.3-2 .3-.8.7-1.4.7-1.9-.1-.4-.7-1.2-.7-2.6 0-1.4.8-1.9.7-1.9-.2 0-.8-.3-.9-.8-.3-.4.5-1.4 1-2.2 1-.8 0-1.8-.5-2.2-1-.5-.7-1-.7-1.5 0-1.1 1.4-4.8 1.2-6.7-.4-1.4-1.2-1.6-1.1-1 .5.4 1.4.1 1.3-1.5-.6-2-2.3-2.2-2.4-3.2-.8-1.1 2-3.9 2.4-3.9.6 0-.6.3-.8.7-.5.3.4 1.3-.2 2-1.3.8-1.1 1.9-1.8 2.4-1.5.5.4.6-.2.2-1.2-.6-1.6-.5-1.6 1-.4.9.7 1.4 1.7 1.1 2.2-.3.5 0 .9.5.9 1.6 0 1.3-1.6-.5-3.5-2-2-1.1-3.3 1.1-1.5.8.7 1.5.8 1.5.4 0-.5-.9-1.5-2.1-2.2-1.4-.9-1.8-2-1.5-3.5.3-1.2.3-1.6 0-1-1 2.1-2.1 1.4-2.1-1.2 0-2.6 1.2-3.4 2-1.3.4 1 .6 1 .6.1.1-1.6-1.4-2.4-3.3-1.7-1.2.5-1.4 1-.6 1.9.5.6.7 1.5.3 1.8-.3.4 0 1.3.7 2.2.8.9.8 1.5.2 1.5-.6 0-1.4-.5-1.7-1-.4-.6-1.1-.8-1.6-.5-.5.4-.9.1-.9-.4 0-.6.5-1.1 1-1.1.6 0 1-.5 1-1.1 0-.5-.4-.8-.9-.5-.5.3-.8-.5-.8-1.7 0-2.1.4-2.3 5.8-2.3 3.3 0 5.9.4 5.9.8s.5.8 1.1.8c.5 0 .7-.5.4-1-.3-.6-.1-1 .4-1 .6 0 1.1.6 1.1 1.2 0 .9.3.9.8.2.8-1.2 11.2-1.6 11.2-.4 0 .5-1.1.7-2.5.6-1.3-.2-2.2.1-1.9.5.6 1.1 4.4.6 5.2-.7 1-1.5 8.2-1.5 8.2-.1 0 .8.3.7.9-.1.4-.8 1.1-1.3 1.5-1.3 2.7.4 3.5-.1 2.9-1.6-.5-1.3-.2-1.5 1.3-1 1.7.6 1.7.5.3-.5-.9-.8-1.6-2.9-1.6-5.3-.2-12.6 0-11.8-3.3-11.3-1.6.3-3 .1-3-.3 0-.8-1.9-.7-3.5.2-1.3.7-8.4.4-9.1-.4-.4-.3-1.7-.2-2.9.3-1.5.6-2.5.5-2.7-.1-.2-.6-.7-.7-1.1-.3zm-10.9 30.2c1.3-1.3 1.5-.8.6 1.6-.3.9-1 1.3-1.5 1-.5-.3-.6.1-.3.9.6 1.6-2.3 4.4-3.4 3.2-.4-.4-.1-1 .6-1.2.6-.3 1.2-.9 1.2-1.4 0-.6-.4-.7-1-.4-.5.3-1 .1-1-.4 0-.6.5-1.1 1-1.1.6 0 1-.5 1-1.1 0-.5-.4-.7-1-.4-1.1.7-1.4-.8-.3-1.9.4-.4 1.2 0 1.9.8.8 1.2 1.3 1.3 2.2.4zm.4 10.4c-.7.7-1.2.8-1.2.2 0-1.4 1.2-2.6 1.9-1.9.2.3-.1 1.1-.7 1.7zm3.6 24.2c.1 1.8 0 1.8-2 0-1.2-1.1-1.8-1.4-1.5-.7.4.6.4 1.3 0 1.6-.5.2-.3.2.4.1.6-.2 1.1.6 1 1.7-.1 1-.4 1.9-.8 1.9-1.5 0-2.8-2.7-2.3-4.7.7-2.7 4.9-2.6 5.2.1zm5.2 39.8c0 .4-.4 1-1 1.3-.5.3-1 0-1-.7 0-.8-.3-.9-.8-.3-1 1.4-4.2 1.5-4.2.1 0-.7 1.5-1.2 3.5-1.2 1.9 0 3.5.4 3.5.8zM25.5 142c-.3.5-.1 1 .4 1 .6 0 1.1-.5 1.1-1 0-.6-.2-1-.4-1-.3 0-.8.4-1.1 1zM19.3 145.5c0 .8.4 1.2.9.9.5-.3.6-1 .3-1.5-.9-1.3-1.2-1.1-1.2.6z"/><path d="M123.1 154.7c.7 1.2 1.5 2 1.8 1.7.3-.2-.3-1.2-1.3-2.2-1.7-1.6-1.8-1.6-.5.5zM24 158c-1.2.7-1 .9.7.7 1.2 0 1.9-.5 1.7-.9-.6-1-.6-1-2.4.2zM121.6 160.7c-.6 1.4-.5 1.5.5.6.7-.7 1-1.5.7-1.8-.3-.3-.9.2-1.2 1.2zM96.7 163c.5 1.8-2.3 6.5-4 6.7-2 .3-2.9 1.1-1 .9 3.8-.4 8-7.4 5.4-9-.5-.4-.7.3-.4 1.4zM107.9 161.7c0 .5-.2 1.6-.4 2.5-.2 1 0 1.8.5 1.8.4 0 .8-1.1.8-2.5 0-2.2-.7-3.6-.9-1.8zM23 162.4c0 .2.8 1 1.8 1.7 1.5 1.3 1.6 1.2.3-.4s-2.1-2.1-2.1-1.3zM88 162.7c.8.3 2 .9 2.5 1.4.6.4 1.7.3 2.5-.3 1.2-.8 1.2-.9-.2-.4-1 .3-2 .1-2.3-.4-.4-.6-1.4-1-2.3-.9-1.4 0-1.4.2-.2.6zM99.4 164c0 1.3.4 1.6 1 1 .7-.7.7-1.3 0-2-.6-.6-1-.3-1 1z"/><path d="M94.1 164.7c-.7.8-1.1 1.6-.8 1.9.2.2 1-.2 1.7-1.1 1.7-2 .9-2.7-.9-.8zM113 164c0 .5.5 1 1 1 .6 0 1-.5 1-1 0-.6-.4-1-1-1-.5 0-1 .4-1 1zM87 164.9c0 .5.7 1.1 1.5 1.5.8.3 1.5.1 1.5-.3 0-.5-.7-1.1-1.5-1.5-.8-.3-1.5-.1-1.5.3zM102.5 165.3c-1.4 1.1-1.5 1.6-.5 2.2.9.5 1.1.4.6-.3-.4-.7-.1-1.2.8-1.2s1.6-.5 1.6-1c0-1.3-.3-1.3-2.5.3zM90.6 167.7c-.6 1.4-.5 1.5.5.6.7-.7 1-1.5.7-1.8-.3-.3-.9.2-1.2 1.2zM111.5 167c-.4.6-1 .8-1.5.5-.5-.3-1.1-.2-1.4.3-.2.4.6.8 1.8.8 1.2 0 2.3-.6 2.3-1.3 0-1.6-.4-1.6-1.2-.3zM122.9 167.7c-1.3 1.6-1.2 1.7.4.4.9-.7 1.7-1.5 1.7-1.7 0-.8-.8-.3-2.1 1.3zM17.6 167.8c-.3.5.1.9.9.9s1.2-.4.9-.9c-.3-.4-.7-.8-.9-.8-.2 0-.6.4-.9.8zM87 167.9c0 .5.5 1.3 1 1.6.6.3 1 .2 1-.4 0-.5-.4-1.3-1-1.6-.5-.3-1-.2-1 .4zM98 167.9c0 .5.7 1.1 1.4 1.4 1 .4 1.3.1.9-.9-.6-1.5-2.3-1.9-2.3-.5zM105 168c0 .5.5 1 1 1 .6 0 1-.5 1-1 0-.6-.4-1-1-1-.5 0-1 .4-1 1zM116.6 168.1c.4.8 3 .6 3.8-.2.3-.3-.5-.5-1.9-.5-1.3 0-2.2.3-1.9.7zM95.6 170.7c-.6 1.4-.5 1.5.5.6.7-.7 1-1.5.7-1.8-.3-.3-.9.2-1.2 1.2zM125.5 170c.3.5.8 1 1.1 1 .2 0 .4-.5.4-1 0-.6-.5-1-1.1-1-.5 0-.7.4-.4 1zM17 171.9c0 .6.4 1.3 1 1.6.6.3.7-.1.4-.9-.7-1.8-1.4-2.1-1.4-.7zM107.9 172.7c-1.3 1.6-1.2 1.7.4.4.9-.7 1.7-1.5 1.7-1.7 0-.8-.8-.3-2.1 1.3zM90.5 173.3c-1.2 1-1.4 1.6-.7 2.1.7.4 1.2 1.2 1.2 1.7 0 .6-.5.7-1.2.3-.7-.5-.8-.3-.3.5.5.9 1 1 1.8.2.7-.7.6-1.5-.4-2.7-1.2-1.6-1.2-1.7.4-1.1 1.2.5 1.6.3 1.1-.5s-.2-.9 1-.5c1 .4 1.5.3 1.1-.3-.8-1.3-1.8-1.3-4 .3zM117.3 173.5c0 .8.4 1.2.9.9.5-.3.6-1 .3-1.5-.9-1.3-1.2-1.1-1.2.6zM99.9 174.7c-1.3 1.6-1.2 1.7.4.4.9-.7 1.7-1.5 1.7-1.7 0-.8-.8-.3-2.1 1.3zM107.6 176.7c-.6 1.4-.5 1.5.5.6.7-.7 1-1.5.7-1.8-.3-.3-.9.2-1.2 1.2zM25.3 182.5c0 .8.4 1.2.9.9.5-.3.6-1 .3-1.5-.9-1.3-1.2-1.1-1.2.6zM19.9 184.7c-1.2 1.6-1.2 1.7.2.6.9-.7 2-.9 2.4-.5.5.4.5.1.1-.6-.9-1.6-1.1-1.5-2.7.5zM25.3 189.7c.4.3.1 1.3-.6 2.2-1.1 1.4-1 1.4.5.2 1.6-1.2 1.6-3.1.1-3.1-.4 0-.3.3 0 .7zM21.3 191.5c0 .8.4 1.2.9.9.5-.3.6-1 .3-1.5-.9-1.3-1.2-1.1-1.2.6zM25.3 197.1c-.2 2.3.3 2.5 1 .4.4-.8.3-1.6-.1-1.9-.4-.3-.9.4-.9 1.5zM20 198c-.9.6-1 1-.3 1 .6 0 1.5-.5 1.8-1 .8-1.2.4-1.2-1.5 0zM121 198.1c0 .5.5.7 1 .4.6-.3 1-.8 1-1.1 0-.2-.4-.4-1-.4-.5 0-1 .5-1 1.1zM90.6 202.5c-.9 2.6-.7 3.2.5 1.2.6-1 .9-2.1.6-2.3-.2-.3-.7.2-1.1 1.1zM101.9 201.2c-.4 1.5-.6 5-.3 4.1.3-.7.5-1.5.4-1.9-.1-.4.4-1.1 1.2-1.5 1-.7 1-.9.1-.9-.7 0-1.3.1-1.4.2zM105.7 202.1c.7.7 1.5 1 1.8.7.3-.3-.2-.9-1.2-1.2-1.4-.6-1.5-.5-.6.5zM115 201.4c0 .2.7.7 1.6 1 .8.3 1.2.2.9-.4-.6-1-2.5-1.4-2.5-.6zM93 202.8c0 .6-.7 1.8-1.6 2.6-.8.9-1.1 1.6-.5 1.6 1.3 0 3.5-3.9 2.7-4.8-.3-.3-.6 0-.6.6zM95.3 204c-.1 1.1.2 2.2.6 2.5.5.2.9-.7.9-2 0-3-1.3-3.4-1.5-.5zM98.6 203.5c-.9 2.6-.7 3.2.5 1.2.6-1 .9-2.1.6-2.3-.2-.3-.7.2-1.1 1.1zM113.3 203.3c0 .8.6 1.4 1.4 1.4.9 0 1-.4.2-1.4-.6-.7-1.2-1.3-1.4-1.3-.1 0-.2.6-.2 1.3zM103.6 204.5c-.9 2.6-.7 3.2.5 1.2.6-1 .9-2.1.6-2.3-.2-.3-.7.2-1.1 1.1zM107.6 207.3c.3.8 1.1 1.4 1.9 1.4 2 0 1.9-.4-.5-1.7-1.5-.8-1.8-.8-1.4.3zM93 208c0 .5.5 1 1 1 .6 0 1-.5 1-1 0-.6-.4-1-1-1-.5 0-1 .4-1 1zM97.6 207.8c-.3.5.1.9.9.9s1.2-.4.9-.9c-.3-.4-.7-.8-.9-.8-.2 0-.6.4-.9.8zM88.4 209.4c-1 .8-1.7 1.6-1.4 1.9.3.2 1.4-.4 2.4-1.4 2.3-2.2 1.8-2.5-1-.5zM99.5 210c-1.6.7-1.7.9-.3.9.9.1 2-.4 2.3-.9.7-1.1.7-1.1-2 0zM113.5 210c.3.5.8 1 1.1 1 .2 0 .4-.5.4-1 0-.6-.5-1-1.1-1-.5 0-.7.4-.4 1zM91 210.9c0 .7-.4.9-1 .6-.6-.3-.7.1-.4 1 .5 1.1.2 1.4-1 .9-.9-.3-1.6-.4-1.6-.1 0 .3.7.7 1.5 1.1 1.5.5 4.2-3 3.1-4.2-.3-.3-.6 0-.6.7zM95 211.1c0 .5.5.7 1 .4.6-.3 1-.8 1-1.1 0-.2-.4-.4-1-.4-.5 0-1 .5-1 1.1zM16.6 211.8c-.3.5.1.9.9.9s1.2-.4.9-.9c-.3-.4-.7-.8-.9-.8-.2 0-.6.4-.9.8zM103.6 212.2c.3.5 1 .6 1.5.3 1.3-.9 1.1-1.2-.6-1.2-.8 0-1.2.4-.9.9zM110 211.4c0 .2.8 1 1.8 1.7 1.5 1.3 1.6 1.2.3-.4s-2.1-2.1-2.1-1.3zM91.3 214.8c-.8 1.4-.8 1.9.1 1.9.7 0 1.3-.9 1.3-1.9.1-1 .1-1.8 0-1.8s-.7.8-1.4 1.8zM80 215.5c0 .2 1.3 1.1 3 2 2.7 1.4 3 1.4 4-.5.7-1.4.7-2 0-2-.5 0-1 .7-1 1.6 0 1.5-.2 1.5-2.5 0-2.5-1.6-3.5-2-3.5-1.1zM94.7 216.1c.7.7 1.5 1 1.8.7.3-.3-.2-.9-1.2-1.2-1.4-.6-1.5-.5-.6.5zM24.6 218.2c.3.5 1 .6 1.5.3 1.3-.9 1.1-1.2-.6-1.2-.8 0-1.2.4-.9.9zM87.6 218.7c-.4.9-.3 2 .1 2.4.4.4.9-.3.9-1.7.2-2.8-.1-3.1-1-.7zM103.5 218c-.3.5-.1 1 .4 1 .6 0 1.1-.5 1.1-1 0-.6-.2-1-.4-1-.3 0-.8.4-1.1 1zM21.6 219.3c.3 1 .9 1.5 1.2 1.2.3-.3 0-1.1-.7-1.8-1-.9-1.1-.8-.5.6zM80.7 219.6c.6 1.5 2.3 1.9 2.3.5 0-.5-.7-1.1-1.4-1.4-1-.4-1.3-.1-.9.9zM91 219c-.8.5-1.2 1.1-1 1.4.3.2 1.4-.2 2.4-1 2.2-1.5 1-1.9-1.4-.4zM21.6 223.8c-.3.4.4.9 1.5.9 2.3.2 2.5-.3.4-1-.8-.4-1.6-.3-1.9.1zM18.5 234c-.3.6.1.7.9.4 1.8-.7 2.1-1.4.7-1.4-.6 0-1.3.4-1.6 1zM24.6 241.8c-.3.5.1.9.9.9s1.2-.4.9-.9c-.3-.4-.7-.8-.9-.8-.2 0-.6.4-.9.8zM125.3 243.5c0 .8.4 1.5.9 1.5.4 0 .8-.4.8-.9 0-.6-.4-1.2-.8-1.5-.5-.3-.9.1-.9.9zM82 245.1c0 .5-.4.8-.8.5-.4-.2-1.4 0-2.2.5-1.1.7-.9.8.9.6 2.1-.3 4.5-2.7 2.7-2.7-.3 0-.6.5-.6 1.1zM103 245.1c0 .5.5.7 1 .4.6-.3 1-.8 1-1.1 0-.2-.4-.4-1-.4-.5 0-1 .5-1 1.1zM23.3 246.5c0 .8.4 1.2.9.9.5-.3.6-1 .3-1.5-.9-1.3-1.2-1.1-1.2.6zM105.6 245.8c-.2.4 0 1.4.6 2.2.8 1.2.9 1.1.4-.4-.5-1.3-.2-1.7.9-1.2.8.3 1.5.1 1.5-.4 0-1.2-2.7-1.3-3.4-.2zM127.6 246.7c-.6 1.4-.5 1.5.5.6.7-.7 1-1.5.7-1.8-.3-.3-.9.2-1.2 1.2zM110 246.9c0 .6.4 1.3 1 1.6.6.3.7-.1.4-.9-.7-1.8-1.4-2.1-1.4-.7zM114.4 247.4c-1 .8-1.6 1.8-1.1 2.2.4.4.7.2.7-.5s.5-.9 1-.6c.6.4.8 1 .6 1.4-.3.4.1.8.9.8 1.1 0 1.2-.4.4-1.3-.6-.7-.8-1.8-.4-2.4.9-1.4.2-1.3-2.1.4zM82.5 248c-.3.6.1.7.9.4 1.8-.7 2.1-1.4.7-1.4-.6 0-1.3.4-1.6 1zM99.3 248.7c0 1 .4 1 1.6.1.9-.7 1.8-1.3 2-1.5.2-.1-.5-.1-1.6 0-1.1 0-2 .7-2 1.4zM119.5 248c-.3.5-.1 1 .4 1 .6 0 1.1-.5 1.1-1 0-.6-.2-1-.4-1-.3 0-.8.4-1.1 1zM79 248.4c0 .2.7.9 1.5 1.6 1.3 1.1 1.4 1 .9-.4-.5-1.4-2.4-2.3-2.4-1.2zM75.3 250.7c0 .9.4 1 1.4.2.7-.6 1.3-1.2 1.3-1.4 0-.1-.6-.2-1.3-.2-.8 0-1.4.6-1.4 1.4zM83.9 249.2c-.5 1.8-.6 3.9-.2 3.4.4-.3 1.1-.1 1.8.4.8.7 1.2.5 1.2-.5 0-.7-.5-1.3-1.1-1.2-.6.1-1-.4-.8-1.1.2-1-.6-1.9-.9-1zM101.3 250.2c-.3.7-.1.8.5.4 1.6-1 1.5.6 0 2.4-1.1 1.2-1 1.2.3.2.9-.6 2-.8 2.4-.4.5.4.5.2.2-.5-.4-.6-.2-1.3.5-1.5.7-.3.2-.7-1-1-1.2-.4-2.5-.1-2.9.4zM109.1 251.3c-.8 1-.7 1.4.2 1.4.8 0 1.4-.6 1.4-1.4 0-.7-.1-1.3-.2-1.3-.2 0-.8.6-1.4 1.3zM119 250.4c0 .2.8 1 1.8 1.7 1.5 1.3 1.6 1.2.3-.4s-2.1-2.1-2.1-1.3zM97 251.9c0 .6.4 1.2.8 1.5.5.3.9-.1.9-.9s-.4-1.5-.9-1.5c-.4 0-.8.4-.8.9zM113.3 252.5c0 .8.4 1.2.9.9.5-.3.6-1 .3-1.5-.9-1.3-1.2-1.1-1.2.6zM22.6 254.2c.3.4.9.8 1.5.8.5 0 .9-.4.9-.8 0-.5-.7-.9-1.5-.9s-1.2.4-.9.9zM72.5 254c-.3.6.1.7.9.4 1.8-.7 2.1-1.4.7-1.4-.6 0-1.3.4-1.6 1zM81.5 256c.3.5.8 1 1.1 1 .2 0 .4-.5.4-1 0-.6-.5-1-1.1-1-.5 0-.7.4-.4 1zM97.6 255.8c-.3.5.1.9.9.9s1.2-.4.9-.9c-.3-.4-.7-.8-.9-.8-.2 0-.6.4-.9.8zM23 258.4c0 .2.8 1 1.8 1.7 1.5 1.3 1.6 1.2.3-.4s-2.1-2.1-2.1-1.3zM79 260.1c0 .5.5.7 1 .4.6-.3 1-.8 1-1.1 0-.2-.4-.4-1-.4-.5 0-1 .5-1 1.1zM16.6 268.2c.3.5 1 .6 1.5.3 1.3-.9 1.1-1.2-.6-1.2-.8 0-1.2.4-.9.9zM21.9 272.7c-1.3 1.6-1.2 1.7.4.4 1.6-1.3 2.1-2.1 1.3-2.1-.2 0-1 .8-1.7 1.7zM283.5 146.1c-.4.6-.5 1.2-.2 1.5.2.3.7-.2 1-1.1.7-1.7.1-2-.8-.4zM234.3 146.8c-.7.4-.9 1.3-.4 2.1.6.9 1 .7 1.4-.8.3-1.2.4-2.1.4-2.1-.1 0-.7.4-1.4.8zM277.5 148c.3.5 1.6 1 2.8.9 2.1 0 2.1-.1.2-.9-2.8-1.2-3.7-1.2-3 0zM320 148c-1.3.8-1.2 1 .3 1 .9 0 1.7-.5 1.7-1 0-1.2-.1-1.2-2 0zM229.3 150.3c-.3.5 0 1.4.6 2 .9.9 1.1.8.5-.6-.5-1.3-.2-1.6 1-1.1.9.3 1.6.2 1.6-.3 0-1.2-2.9-1.3-3.7 0zM274.7 151.5c-1.1 1.6-1.3 2.6-.6 3 .6.4 1.3.4 1.6.1.4-.3 0-.6-.7-.6-.9 0-.8-.6.5-2 1-1.1 1.6-2.2 1.4-2.4-.2-.2-1.2.6-2.2 1.9zM321.6 151.5c.4.8.8 1.5 1 1.5.2 0 .4-.7.4-1.5s-.4-1.5-1-1.5c-.5 0-.7.7-.4 1.5zM278.5 152c.3.5.8 1 1.1 1 .2 0 .4-.5.4-1 0-.6-.5-1-1.1-1-.5 0-.7.4-.4 1zM285.3 152.5c0 .8.4 1.2.9.9.5-.3.6-1 .3-1.5-.9-1.3-1.2-1.1-1.2.6zM326 152.5c0 .8.2 1.5.4 1.5s.6-.7 1-1.5c.3-.8.1-1.5-.4-1.5-.6 0-1 .7-1 1.5zM330.5 152c-.3.5-.1 1 .4 1 .6 0 1.1-.5 1.1-1 0-.6-.2-1-.4-1-.3 0-.8.4-1.1 1zM277.5 153.9c.3.5-.5 1.7-1.7 2.5-1.2.9-1.7 1.6-1.1 1.6 1.7 0 4.4-3 3.8-4.1-.4-.5-.8-.9-1.1-.9-.3 0-.3.4.1.9zM322.5 154.4c-1.7 1.2-1.7 1.6-.6 3 1.6 2 2.2 6.6 1 8.2-.5.6-.3 1.1.5 1.1.9 0 1.2-1.3 1-4.4-.1-3 .1-4.1.9-3.6.7.3.8.2.4-.3-.5-.5-1.4-.9-1.9-.9-.6 0-1.3-.6-1.5-1.3-.3-.6.2-1.2 1.1-1.2.9 0 1.6-.5 1.6-1 0-1.3-.3-1.3-2.5.4zM281.3 155.3c0 .8.6 1.4 1.4 1.4.9 0 1-.4.2-1.4-.6-.7-1.2-1.3-1.4-1.3-.1 0-.2.6-.2 1.3zM223.7 155.7c-.4.3-.7 1.1-.7 1.7 0 .6.5.5 1.2-.2.6-.6.9-1.4.7-1.7-.3-.3-.9-.2-1.2.2zM271 156c-1.3.8-1.2 1 .3 1 .9 0 1.7-.5 1.7-1 0-1.2-.1-1.2-2 0zM326.6 156.2c.3.4.9.8 1.5.8.5 0 .9-.4.9-.8 0-.5-.7-.9-1.5-.9s-1.2.4-.9.9zM319 156.9c0 .6.4 1.3 1 1.6.6.3.7-.1.4-.9-.7-1.8-1.4-2.1-1.4-.7zM225.4 158.1c-.4.7-.3.9.4.5.6-.3 1.3.2 1.5 1.1.4 1.6.5 1.6.6.1.1-2.1-1.5-3.2-2.5-1.7zM265.2 160c2.2 3.1 3.8 3.9 3.8 1.9 0-.5-.4-.8-.8-.5-.5.3-1.5-.6-2.2-1.9-.7-1.4-1.7-2.5-2.2-2.5-.5 0 .1 1.3 1.4 3zM269 158.9c0 1 1.9 2.5 2.5 2 .1-.2-.3-1-1.1-1.7s-1.4-.8-1.4-.3zM277.5 159.1c-.4.6-.5 1.2-.2 1.5.2.3.7-.2 1-1.1.7-1.7.1-2-.8-.4zM262 159.9c0 1 1.9 2.5 2.5 2 .1-.2-.3-1-1.1-1.7s-1.4-.8-1.4-.3z"/><path d="M318 160c.8.5 2.2.9 3 .9 1 0 .8-.3-.5-.9-2.7-1.2-4.3-1.2-2.5 0zM223.2 160.9c-1.1.6-1 1 .4 1.5.9.3 1.9.4 2.2.1.3-.3 0-.5-.7-.5s-.9-.5-.6-1c.7-1.2.4-1.2-1.3-.1zM233.5 162c.3.5.8 1 1.1 1 .2 0 .4-.5.4-1 0-.6-.5-1-1.1-1-.5 0-.7.4-.4 1zM326.5 162c-.3.6.1.7.9.4 1.8-.7 2.1-1.4.7-1.4-.6 0-1.3.4-1.6 1zM261 164c0 .5.5 1 1 1 .6 0 1-.5 1-1 0-.6-.4-1-1-1-.5 0-1 .4-1 1zM265 163.9c.8.6 1.1 1.1.5 1.1-.5 0-.1.7 1 1.6 1.1.8 1.9 1.8 1.7 2.2-.2.3.2.8 1 1 .9.2.8 0-.2-.7-.8-.6-1-1.1-.5-1.1.6 0 .1-.7-1-1.6-1.1-.8-1.9-1.8-1.7-2.2.2-.3-.2-.8-1-1-.9-.2-.8 0 .2.7zM314.1 164.3c-.1 1-.5 1.6-.9 1.3-.5-.3-.9.2-.9 1 0 1.3.2 1.3 1.5 0 .8-.8 1.2-2 .9-2.8-.4-.9-.6-.7-.6.5zM270.8 165.2c-.7 1.7 1.5 1.9 2.9.3.4-.4.3-.5-.4-.2-.6.4-1.3.2-1.5-.5-.3-.8-.6-.6-1 .4zM227 166.5c.5.7.6 1.6.2 2.1-.4.5-.3.5.2.1 1.5-1.2 1.5-3.4 0-3.4-.9 0-1.1.4-.4 1.2zM315.2 167c-.7 1.1-.8 2-.3 2 .9 0 2.4-3 1.8-3.6-.1-.2-.8.6-1.5 1.6zM262.5 166.8c-2 1.3-1 3.7 1.3 3.5 1.5-.2 2.1.1 1.6.9-.4.7-.3.8.5.4 1.7-1.1.2-2.8-2-2.1-1.4.5-1.7.3-1.3-.9.3-.9 1.1-1.3 1.7-.9.6.3.7.1.3-.5-.8-1.4-.8-1.4-2.1-.4zM319 167c-.9.6-1 1-.3 1 .6 0 1.5-.5 1.8-1 .8-1.2.4-1.2-1.5 0zM219.6 168.5c.4.8.8 1.5 1 1.5.2 0 .4-.7.4-1.5s-.4-1.5-1-1.5c-.5 0-.7.7-.4 1.5zM319.6 170.2c.3.5 1 .6 1.5.3 1.3-.9 1.1-1.2-.6-1.2-.8 0-1.2.4-.9.9zM220.7 172.4c-.4 1-.1 1.3.9.9 1.5-.6 1.9-2.3.5-2.3-.5 0-1.1.7-1.4 1.4zM269.3 172.7c0 1 .4 1 1.6.1.9-.7 1.8-1.3 2-1.5.2-.1-.5-.1-1.6 0-1.1 0-2 .7-2 1.4zM314.3 171.7c.9.8 4.7 1.1 4.7.4 0-.5-1.1-.9-2.5-.9s-2.4.2-2.2.5zM227.3 173.5c0 .8.4 1.2.9.9.5-.3.6-1 .3-1.5-.9-1.3-1.2-1.1-1.2.6zM259.4 175c0 1.3.4 1.6 1 1 .7-.7.7-1.3 0-2-.6-.6-1-.3-1 1zM313.5 174.1c-.4.6-.4 1.3-.1 1.6.3.4.6.1.6-.6s.5-.9 1.2-.5.8.3.4-.4c-.9-1.5-1.3-1.5-2.1-.1zM223 175c0 .5.7.7 1.5.4.8-.4 1.5-.8 1.5-1 0-.2-.7-.4-1.5-.4s-1.5.4-1.5 1zM321.7 174.7c-1 .9-.9 2.3.1 2.3.5 0 .9-.7.9-1.5 0-1.7-.1-1.8-1-.8zM263.4 176.1c-.3.6-.1 1.6.5 2.2.9.9 1 .7.5-.8-.7-1.8-.6-1.9.9-.6 1.5 1.2 1.7 1.2 1.1-.3-.7-1.8-2-2.1-3-.5zM269.3 176.7c0 .9.4 1 1.4.2.7-.6 1.3-1.2 1.3-1.4 0-.1-.6-.2-1.3-.2-.8 0-1.4.6-1.4 1.4zM317.5 177c-.3.6.1.7.9.4 1.8-.7 2.1-1.4.7-1.4-.6 0-1.3.4-1.6 1zM221.7 177.7c-.4.3-.7 1.3-.7 2.2.1 1.3.3 1.3 1.1-.2 1.1-1.9.8-3.3-.4-2zM233.3 179.1c-.2 2.3.3 2.5 1 .4.4-.8.3-1.6-.1-1.9-.4-.3-.9.4-.9 1.5zM313.5 178c.5.9.1 1.1-1.6.6-1.3-.3-1.8-.3-1.1 0 .6.3 1 1 .7 1.4-.3.5 0 1.2.7 1.6.7.4 1 .4.6-.1-.4-.4 0-1.3.9-2 1.3-.9 1.3-1.4.3-2-.9-.6-1.1-.4-.5.5zM223.6 179.5c-.9 2.6-.7 3.2.5 1.2.6-1 .9-2.1.6-2.3-.2-.3-.7.2-1.1 1.1zM319.6 179.3c.3 1 .9 1.5 1.2 1.2.3-.3 0-1.1-.7-1.8-1-.9-1.1-.8-.5.6zM229.3 180.5c0 .8.4 1.2.9.9.4-.3.8-.9.8-1.5 0-.5-.4-.9-.8-.9-.5 0-.9.7-.9 1.5zM258 180.1c0 .5.5.7 1 .4.6-.3 1-.8 1-1.1 0-.2-.4-.4-1-.4-.5 0-1 .5-1 1.1zM261 179.4c0 .2.7.7 1.6 1 .8.3 1.2.2.9-.4-.6-1-2.5-1.4-2.5-.6zM317 179.9c0 .6.4 1.3 1 1.6.6.3.7-.1.4-.9-.7-1.8-1.4-2.1-1.4-.7zM322.6 180.2c.3.5 1 .6 1.5.3 1.3-.9 1.1-1.2-.6-1.2-.8 0-1.2.4-.9.9zM260.4 182.5c-.4.8-1 1.3-1.4 1-.5-.3-1.1-.1-1.4.4-.4.5.1.8 1 .7 1.5-.2 4.2-3.6 2.9-3.6-.3 0-.8.7-1.1 1.5zM309.5 182.9c-.3.5-.2 1.2.3 1.5.5.3.9-.1.9-.9 0-1.7-.3-1.9-1.2-.6zM227.9 184.7c-1.2 1.6-1.2 1.7.2.6.9-.7 2-.9 2.4-.5.5.4.5.1.1-.6-.9-1.6-1.1-1.5-2.7.5zM235.5 184c.3.5.8 1 1.1 1 .2 0 .4-.5.4-1 0-.6-.5-1-1.1-1-.5 0-.7.4-.4 1zM261.6 184.7c-.6 1.4-.5 1.5.5.6.7-.7 1-1.5.7-1.8-.3-.3-.9.2-1.2 1.2zM223 185c-1.3.8-1.2 1 .3 1 .9 0 1.7-.5 1.7-1 0-1.2-.1-1.2-2 0zM315.1 186.6c.6.7.8 1.8.5 2.3-.4.5-.3 1.2.2 1.5.5.3.8-.8.8-2.3 0-1.6-.5-2.8-1.3-2.8-.9 0-1 .4-.2 1.3zM229.1 187.3c-.8 1-.7 1.4.2 1.4.8 0 1.4-.6 1.4-1.4 0-.7-.1-1.3-.2-1.3-.2 0-.8.6-1.4 1.3zM257.3 187.7c.1 1.7.4 1.9 1.4 1.1 1.5-1.2 1.8-2.2.4-1.4-.5.4-1.1 0-1.4-.6-.3-.7-.4-.3-.4.9zM225 188c0 .5.5 1 1 1 .6 0 1-.5 1-1 0-.6-.4-1-1-1-.5 0-1 .4-1 1zM236 188c-.9.6-1 1-.3 1 .6 0 1.5-.5 1.8-1 .8-1.2.4-1.2-1.5 0zM263.1 187.3c.2.1 1.3.9 2.4 1.7 1.9 1.4 1.9 1.4.6-.3-.7-.9-1.8-1.7-2.4-1.7-.6 0-.8.1-.6.3zM223 189.9c0 .6.5 1.3 1 1.6.6.4.7 1.1.4 1.7-.4.7-.2.8.4.4.9-.5.9-1.3.2-2.7-1.1-2-2-2.5-2-1zM260 190.5c-.7.9-1.1 1.7-.9 2 .3.2 1-.5 1.7-1.5 1.4-2.4 1-2.6-.8-.5zM310.9 190.2c.7.9.9 2.3.5 3-.6 1-.4 1.1.7 0 1.1-1 1-1.5-.6-3-1.7-1.5-1.8-1.5-.6 0zM227.3 191.6c.1 2.4 2.2 2.2 3.1-.3.5-1.3.4-1.4-.8-.4-1.1.9-1.5.9-1.9-.1-.3-.7-.4-.3-.4.8zM267.5 192c-.3.5-.1 1 .4 1 .6 0 1.1-.5 1.1-1 0-.6-.2-1-.4-1-.3 0-.8.4-1.1 1zM262.5 194c-.3.6.1.7.9.4 1.8-.7 2.1-1.4.7-1.4-.6 0-1.3.4-1.6 1zM225 196c0 .5.5 1 1 1 .6 0 1-.5 1-1 0-.6-.4-1-1-1-.5 0-1 .4-1 1zM318.7 196.1c.7.7 1.5 1 1.8.7.3-.3-.2-.9-1.2-1.2-1.4-.6-1.5-.5-.6.5zM226.6 199.6c-.4.9-.4 1.9-.1 2.2.3.3.5 0 .5-.7s.4-.9 1-.6c.6.3.7-.1.4-.9-.8-2-1-2-1.8 0zM254 199.5c0 .2.6.8 1.3 1.4 1 .8 1.4.7 1.4-.2 0-.8-.6-1.4-1.4-1.4-.7 0-1.3.1-1.3.2zM321 200c0 .5.5 1 1.1 1 .5 0 .7-.5.4-1-.3-.6-.8-1-1.1-1-.2 0-.4.4-.4 1zM229.5 202c-.7 1.1 2.2 2.6 3.2 1.6.4-.3-.1-.6-1.1-.6-.9 0-1.4-.5-1.1-1 .3-.6.4-1 .1-1-.3 0-.8.5-1.1 1zM289 204.1c0 .5.5.7 1 .4.6-.3 1-.8 1-1.1 0-.2-.4-.4-1-.4-.5 0-1 .5-1 1.1zM231 205.4c0 .2.7.7 1.6 1 .8.3 1.2.2.9-.4-.6-1-2.5-1.4-2.5-.6zM261 206c0 .5.5 1 1.1 1 .5 0 .7-.5.4-1-.3-.6-.8-1-1.1-1-.2 0-.4.4-.4 1zM293.5 206.1c-.3.4.2.6 1 .5 2.1-.3 2.8-1.3 1-1.3-.9 0-1.8.4-2 .8zM307 206.1c0 .5.5.7 1 .4.6-.3 1-.8 1-1.1 0-.2-.4-.4-1-.4-.5 0-1 .5-1 1.1zM317.6 205.8c-.3.5.1.9.9.9s1.2-.4.9-.9c-.3-.4-.7-.8-.9-.8-.2 0-.6.4-.9.8zM227.5 210.1c-.4.6-.4 1.3-.1 1.6.3.4.6.1.6-.6s.5-.9 1-.6c.6.4.8 1.1.5 1.6-1.1 1.6.5 3.1 2 1.9.8-.7 2-.8 2.7-.4 1 .5 1 .4.1-.6-1-1.1-1.5-1.1-2.8 0-1.4 1.2-1.6 1.2-1.5-.1.6-3.6-1-5.3-2.5-2.8z"/><path d="M231.6 210.2c.3.5 1 .6 1.5.3 1.3-.9 1.1-1.2-.6-1.2-.8 0-1.2.4-.9.9zM263.6 210.2c.3.5 1 .6 1.5.3 1.3-.9 1.1-1.2-.6-1.2-.8 0-1.2.4-.9.9zM295.1 211.3c-.8 1-.7 1.4.2 1.4.8 0 1.4-.6 1.4-1.4 0-.7-.1-1.3-.2-1.3-.2 0-.8.6-1.4 1.3zM296.6 218.2c.3.5 1 .6 1.5.3 1.3-.9 1.1-1.2-.6-1.2-.8 0-1.2.4-.9.9zM233.5 220.1c-.4.6-.4 1.3-.1 1.6.3.4.6.1.6-.6s.5-.9 1.2-.5.8.3.4-.4c-.9-1.5-1.3-1.5-2.1-.1zM297.5 220.9c-.3.5-.2 1.2.3 1.5.5.3.9-.1.9-.9 0-1.7-.3-1.9-1.2-.6zM231.3 222.8c0 1.2.5 2.2.9 2.2 1.1 0 1-1.2-.2-3-.7-1.2-.9-1-.7.8zM286.4 221.8c.4.3 1.4.7 2.2.8.9.1 1.3 0 1-.4-.4-.3-1.4-.7-2.2-.8-.9-.1-1.3 0-1 .4zM287 225c0 .5.5 1 1.1 1 .5 0 .7-.5.4-1-.3-.6-.8-1-1.1-1-.2 0-.4.4-.4 1zM290.8 226.8c.5.9.7 2.3.5 2.9-.3.7-.1 1.3.4 1.3 1.4 0 1-4.9-.4-5.4-1-.4-1.1-.1-.5 1.2zM295.5 227c1 1.1 2 2 2.3 2 .3 0-.3-.9-1.3-2s-2-2-2.3-2c-.3 0 .3.9 1.3 2zM232.1 228.3c-1 1.5-1.1 2.2-.2 2.5.6.2.9.8.5 1.3-.3.5 0 .9.5.9 1.4 0 1.4-1.7.1-2.5-.8-.5-.7-1.1.1-2.1.6-.8 1-1.6.8-1.9-.3-.2-1.1.6-1.8 1.8zM241 230.1c0 .5.5.7 1 .4.6-.3 1-.8 1-1.1 0-.2-.4-.4-1-.4-.5 0-1 .5-1 1.1zM294.6 229.8c-.3.5.1.9.9.9s1.2-.4.9-.9c-.3-.4-.7-.8-.9-.8-.2 0-.6.4-.9.8zM237.9 232.7c-1.3 1.6-1.2 1.7.4.4.9-.7 1.7-1.5 1.7-1.7 0-.8-.8-.3-2.1 1.3zM299.3 234.5c0 .8.4 1.2.9.9.5-.3.6-1 .3-1.5-.9-1.3-1.2-1.1-1.2.6zM293.2 234.9c-1.1.6-1 1 0 1.9 1.1.8 1.4.7 1.4-.9 0-1 0-1.9-.1-1.9 0 0-.6.4-1.3.9zM232.3 235.6c.9.3 1.5.9 1.2 1.4-.3.5.5 1.4 1.7 2 2 .9 2.1.9.7-.2-.9-.7-1.6-1.8-1.7-2.3-.1-.6-.9-1.1-1.9-1.2-1.7-.2-1.7-.1 0 .3zM239.3 235.7c.4.3.1 1.3-.6 2.2-1.1 1.4-1 1.4.5.2 1.6-1.2 1.6-3.1.1-3.1-.4 0-.3.3 0 .7zM289.6 237.9c-.3.5.2 1.5 1.2 2.2 1.6 1.3 1.6 1.3.2-.5-1.4-1.8-1.3-1.9.3-1.3 1.1.4 1.6.3 1.2-.3-.8-1.2-2.2-1.3-2.9-.1zM266.6 142.9c-.3.5-.3 1.7.1 2.7.4 1.2.3 1.5-.5 1-.8-.4-1-.2-.6.7.3.8.1 1.8-.5 2.1-.7.5-.7 1.5.1 3.1l1.1 2.5 1.8-2.2c1.1-1.2 1.7-3.1 1.4-4.5-.2-1.6 0-2.3.8-2 .7.2 1.1 1.3.9 2.3-.3 1.6-.1 1.6 1.3-.4.9-1.2 1.3-2.7.9-3.4-.5-.8-.2-.9 1-.5.9.4 1.5.3 1.1-.2-.3-.5.1-1.1.7-1.3.7-.3-.2-.5-2-.5s-2.8.3-2.2.7c.8.5.6.9-.5 1.4-2.3.8-2.5.8-2.2-.5.3-1.5-1.9-2.3-2.7-1zm2.1 1.6c0 .8-.4 1.2-.9.9-.4-.3-.8-.9-.8-1.5 0-.5.4-.9.8-.9.5 0 .9.7.9 1.5zm4.3 1.5c0 .5-.2 1-.4 1-.3 0-.8-.5-1.1-1-.3-.6-.1-1 .4-1 .6 0 1.1.4 1.1 1zm-4.3 2.9c.1 1.1-.6 2.6-1.5 3.3-1.1.9-1.4 1-.8 0 .4-.6.2-1.2-.3-1.2-.7 0-.7-.7.1-2 1.6-2.5 2.3-2.5 2.5-.1z"/></svg>